<svg width="16" height="16" viewBox="0 0 16 16" fill="none" xmlns="http://www.w3.org/2000/svg">
<path fill-rule="evenodd" clip-rule="evenodd" d="M2.22469 0.810956C1.83417 0.420436 1.201 0.420436 0.810476 0.810956C0.419946 1.20148 0.419946 1.83465 0.810476 2.22517L6.58523 7.9999L0.810536 13.7746C0.420006 14.1651 0.420006 14.7983 0.810536 15.1888C1.20106 15.5793 1.83423 15.5793 2.22475 15.1888L7.99943 9.4141L13.7741 15.1888C14.1646 15.5793 14.7978 15.5793 15.1883 15.1888C15.5788 14.7983 15.5788 14.1651 15.1883 13.7746L9.41363 7.9999L15.1883 2.22517C15.5789 1.83465 15.5789 1.20148 15.1883 0.810956C14.7978 0.420436 14.1647 0.420436 13.7741 0.810956L7.99943 6.5857L2.22469 0.810956Z" fill="#171717"/>
</svg>
