<svg xmlns="http://www.w3.org/2000/svg">
    <g id="logo" width="108" height="38" viewBox="0 0 108 38">
        <path d="M3.32693 18.7609L18.8565 34.2118L34.3855 18.7609L18.8565 3.31059L3.32693 18.7609ZM7.87478 25.498L6.30615 23.9374L1.10898 18.7641L6.30615 13.5916L7.87478 12.0309V7.83783H12.0874L18.8532 1.10331L24.0498 6.27655L25.6184 7.83717H29.8317V12.0303L31.3997 13.5916L36.5969 18.7641L31.3997 23.9367L29.8317 25.498V29.6918H25.6184L24.0498 31.253L18.8532 36.4256L13.6561 31.253L12.0874 29.6918H7.87478V25.498ZM18.8526 0L12.5471 6.27524H6.30615V12.4863L0 18.7602L6.30615 25.0361V31.2465H12.5471L18.8532 37.5217L25.1587 31.2465H31.3997V25.0354L37.7058 18.7602L31.3997 12.485V6.27459H25.1587L18.8526 0Z" fill="#00805F"/>
        <path d="M1.10645 18.7581L7.8716 12.0256V7.83314H12.0849L18.8501 1.10059L25.6152 7.83314H29.8285V12.0262L36.595 18.7575L29.8292 25.49V29.6831H25.6159L18.8507 36.4157L12.0856 29.6831H7.87225V25.49L1.10645 18.7581ZM7.86962 23.2808C10.4893 20.1379 14.4385 18.1325 18.8455 18.1318C22.2468 18.1318 25.0206 15.3716 25.0206 11.9863C25.0206 10.3877 24.4022 8.92793 23.3913 7.83248L18.8455 3.30786L14.2989 7.83314L7.87028 14.2316L3.3244 18.7568L7.87028 23.2815L7.86962 23.2808ZM29.8285 14.2355C27.2089 17.3783 23.2583 19.3838 18.8501 19.3838C15.4474 19.3845 12.673 22.1454 12.673 25.5307C12.673 27.1293 13.292 28.5883 14.3035 29.6838H14.3022L18.8501 34.2084L23.3979 29.6838L29.8285 23.2847L34.3764 18.7601L29.8285 14.2355Z" fill="#FAAE17"/>
        <path d="M57.7484 31.2483H54.6118L60.5716 19.3864H63.7082L69.6679 31.2483H66.5307L65.5903 29.3745H58.6888L57.7484 31.2483ZM38.3005 19.3864H50.3768C51.1665 19.3888 51.9231 19.702 52.4814 20.2576C53.0397 20.8132 53.3544 21.566 53.3567 22.3517C53.3546 23.1374 53.04 23.8903 52.4816 24.4459C51.9232 25.0016 51.1665 25.3147 50.3768 25.317C51.1665 25.3194 51.9231 25.6326 52.4814 26.1882C53.0397 26.7438 53.3544 27.4967 53.3567 28.2823C53.3546 29.0681 53.04 29.8211 52.4817 30.3768C51.9233 30.9325 51.1666 31.2458 50.3768 31.2483H38.3005V19.3864ZM38.3005 6.27637H41.4378V11.2707H50.22V6.27637H53.3567V18.1376H50.22V13.1439H41.4378V18.1376H38.3005V6.27637ZM65.5903 16.2651H58.6888L57.7484 18.1376H54.6118L60.5716 6.27637H63.7082L69.6679 18.1376H66.5307L65.5903 16.2651ZM59.6305 14.3985H64.6486L62.1396 9.39761L59.6305 14.3985ZM70.9225 6.27637H74.0591V16.2651H82.842V18.1376H70.9225V6.27637ZM87.2377 18.1376H84.0991V13.1439L78.1374 6.27637H81.2753L85.6684 11.2707L90.0615 6.27637H93.1994L87.2377 13.1439V18.1376ZM94.1339 6.27637H97.2725V11.2707L104.177 6.27637H107.629L99.5319 12.207L107.629 18.1376H104.177L97.2725 13.1439V18.1376H94.1339V6.27637ZM100.721 31.2483H97.2712L90.3704 26.2539V31.2483H87.2331V19.3864H90.3704V24.3807L97.2718 19.3864H100.721L92.6285 25.317L100.721 31.2483ZM70.9225 19.3864H74.0591L82.842 28.1264V19.3864H85.9786V31.2483H82.842L74.0591 22.5083V31.2483H70.9225V19.3864ZM41.4378 21.2595V24.3807H48.6521C49.0676 24.3794 49.4657 24.2145 49.7595 23.9221C50.0533 23.6297 50.2188 23.2335 50.22 22.8201C50.2188 22.4067 50.0533 22.0106 49.7595 21.7182C49.4657 21.4258 49.0676 21.2609 48.6521 21.2595H41.4378ZM41.4378 26.2539V29.3817H48.6521C49.0681 29.3799 49.4665 29.2145 49.7603 28.9215C50.0541 28.6285 50.2194 28.2317 50.22 27.8178C50.2192 27.404 50.0538 27.0073 49.7601 26.7143C49.4663 26.4213 49.068 26.2558 48.6521 26.2539H41.4378ZM64.6492 27.5085L62.1402 22.5076L59.6305 27.5085H64.6492Z" fill="#008060"/>
    </g>
    <g id="grey-search-19" width="19" height="19" viewBox="0 0 19 19">
        <path fill-rule="evenodd" clip-rule="evenodd" d="M14.3952 12.9761C16.852 9.8209 16.63 5.25612 13.7295 2.3556C10.5887 -0.785201 5.49642 -0.785201 2.35561 2.3556C-0.785204 5.49642 -0.785204 10.5887 2.35561 13.7295C5.25614 16.63 9.82096 16.8519 12.9762 14.3952C12.9897 14.4106 13.0039 14.4257 13.0186 14.4403L17.2838 18.7055C17.6764 19.0982 18.313 19.0982 18.7056 18.7055C19.0981 18.3129 19.0981 17.6764 18.7056 17.2838L14.4404 13.0186C14.4256 13.0039 14.4105 12.9898 14.3952 12.9761ZM12.2426 3.75737C14.5858 6.10051 14.5858 9.89947 12.2426 12.2427C9.8995 14.5858 6.1005 14.5858 3.75736 12.2427C1.41421 9.89947 1.41421 6.10051 3.75736 3.75737C6.1005 1.41421 9.8995 1.41421 12.2426 3.75737Z" fill="#8F92A1"/>
    </g>
</svg>