<svg xmlns="http://www.w3.org/2000/svg">
    <g id="logo" width="108" height="38" viewBox="0 0 108 38">
        <path d="M3.32693 18.7609L18.8565 34.2118L34.3855 18.7609L18.8565 3.31059L3.32693 18.7609ZM7.87478 25.498L6.30615 23.9374L1.10898 18.7641L6.30615 13.5916L7.87478 12.0309V7.83783H12.0874L18.8532 1.10331L24.0498 6.27655L25.6184 7.83717H29.8317V12.0303L31.3997 13.5916L36.5969 18.7641L31.3997 23.9367L29.8317 25.498V29.6918H25.6184L24.0498 31.253L18.8532 36.4256L13.6561 31.253L12.0874 29.6918H7.87478V25.498ZM18.8526 0L12.5471 6.27524H6.30615V12.4863L0 18.7602L6.30615 25.0361V31.2465H12.5471L18.8532 37.5217L25.1587 31.2465H31.3997V25.0354L37.7058 18.7602L31.3997 12.485V6.27459H25.1587L18.8526 0Z" fill="#00805F"/>
        <path d="M1.10645 18.7581L7.8716 12.0256V7.83314H12.0849L18.8501 1.10059L25.6152 7.83314H29.8285V12.0262L36.595 18.7575L29.8292 25.49V29.6831H25.6159L18.8507 36.4157L12.0856 29.6831H7.87225V25.49L1.10645 18.7581ZM7.86962 23.2808C10.4893 20.1379 14.4385 18.1325 18.8455 18.1318C22.2468 18.1318 25.0206 15.3716 25.0206 11.9863C25.0206 10.3877 24.4022 8.92793 23.3913 7.83248L18.8455 3.30786L14.2989 7.83314L7.87028 14.2316L3.3244 18.7568L7.87028 23.2815L7.86962 23.2808ZM29.8285 14.2355C27.2089 17.3783 23.2583 19.3838 18.8501 19.3838C15.4474 19.3845 12.673 22.1454 12.673 25.5307C12.673 27.1293 13.292 28.5883 14.3035 29.6838H14.3022L18.8501 34.2084L23.3979 29.6838L29.8285 23.2847L34.3764 18.7601L29.8285 14.2355Z" fill="#FAAE17"/>
        <path d="M57.7484 31.2483H54.6118L60.5716 19.3864H63.7082L69.6679 31.2483H66.5307L65.5903 29.3745H58.6888L57.7484 31.2483ZM38.3005 19.3864H50.3768C51.1665 19.3888 51.9231 19.702 52.4814 20.2576C53.0397 20.8132 53.3544 21.566 53.3567 22.3517C53.3546 23.1374 53.04 23.8903 52.4816 24.4459C51.9232 25.0016 51.1665 25.3147 50.3768 25.317C51.1665 25.3194 51.9231 25.6326 52.4814 26.1882C53.0397 26.7438 53.3544 27.4967 53.3567 28.2823C53.3546 29.0681 53.04 29.8211 52.4817 30.3768C51.9233 30.9325 51.1666 31.2458 50.3768 31.2483H38.3005V19.3864ZM38.3005 6.27637H41.4378V11.2707H50.22V6.27637H53.3567V18.1376H50.22V13.1439H41.4378V18.1376H38.3005V6.27637ZM65.5903 16.2651H58.6888L57.7484 18.1376H54.6118L60.5716 6.27637H63.7082L69.6679 18.1376H66.5307L65.5903 16.2651ZM59.6305 14.3985H64.6486L62.1396 9.39761L59.6305 14.3985ZM70.9225 6.27637H74.0591V16.2651H82.842V18.1376H70.9225V6.27637ZM87.2377 18.1376H84.0991V13.1439L78.1374 6.27637H81.2753L85.6684 11.2707L90.0615 6.27637H93.1994L87.2377 13.1439V18.1376ZM94.1339 6.27637H97.2725V11.2707L104.177 6.27637H107.629L99.5319 12.207L107.629 18.1376H104.177L97.2725 13.1439V18.1376H94.1339V6.27637ZM100.721 31.2483H97.2712L90.3704 26.2539V31.2483H87.2331V19.3864H90.3704V24.3807L97.2718 19.3864H100.721L92.6285 25.317L100.721 31.2483ZM70.9225 19.3864H74.0591L82.842 28.1264V19.3864H85.9786V31.2483H82.842L74.0591 22.5083V31.2483H70.9225V19.3864ZM41.4378 21.2595V24.3807H48.6521C49.0676 24.3794 49.4657 24.2145 49.7595 23.9221C50.0533 23.6297 50.2188 23.2335 50.22 22.8201C50.2188 22.4067 50.0533 22.0106 49.7595 21.7182C49.4657 21.4258 49.0676 21.2609 48.6521 21.2595H41.4378ZM41.4378 26.2539V29.3817H48.6521C49.0681 29.3799 49.4665 29.2145 49.7603 28.9215C50.0541 28.6285 50.2194 28.2317 50.22 27.8178C50.2192 27.404 50.0538 27.0073 49.7601 26.7143C49.4663 26.4213 49.068 26.2558 48.6521 26.2539H41.4378ZM64.6492 27.5085L62.1402 22.5076L59.6305 27.5085H64.6492Z" fill="#008060"/>
    </g>
    <g id="grey-search-19" width="19" height="19" viewBox="0 0 19 19">
        <path fill-rule="evenodd" clip-rule="evenodd" d="M14.3952 12.9761C16.852 9.8209 16.63 5.25612 13.7295 2.3556C10.5887 -0.785201 5.49642 -0.785201 2.35561 2.3556C-0.785204 5.49642 -0.785204 10.5887 2.35561 13.7295C5.25614 16.63 9.82096 16.8519 12.9762 14.3952C12.9897 14.4106 13.0039 14.4257 13.0186 14.4403L17.2838 18.7055C17.6764 19.0982 18.313 19.0982 18.7056 18.7055C19.0981 18.3129 19.0981 17.6764 18.7056 17.2838L14.4404 13.0186C14.4256 13.0039 14.4105 12.9898 14.3952 12.9761ZM12.2426 3.75737C14.5858 6.10051 14.5858 9.89947 12.2426 12.2427C9.8995 14.5858 6.1005 14.5858 3.75736 12.2427C1.41421 9.89947 1.41421 6.10051 3.75736 3.75737C6.1005 1.41421 9.8995 1.41421 12.2426 3.75737Z" fill="#8F92A1"/>
    </g>
    <g id="corner-down-right" width="20" height="18" viewBox="0 0 20 18">
        <path fill-rule="evenodd" clip-rule="evenodd" d="M4.85059 10.4004C3.74602 10.4004 2.85059 9.50496 2.85059 8.40036V0.400391H0.850586V8.40036C0.850586 10.6096 2.64145 12.4004 4.85059 12.4004H15.1561L11.3715 16.1851L12.7857 17.5993L19.1497 11.2353L12.7857 4.87134L11.3715 6.28556L15.4863 10.4004H4.85059Z" fill="#8F92A1"/>
    </g>
    <g id="arrow-left" width="18" height="12" viewBox="0 0 18 12">
        <path fill-rule="evenodd" clip-rule="evenodd" d="M17.3287 5.0002V7.0002H4.50042L7.7429 10.2428L6.32872 11.657L0.671875 6.0001L6.32872 0.343262L7.7429 1.75747L4.50019 5.0002H17.3287Z" fill="#171717"/>
    </g>
    <g id="filled-arrow-bottom" width="10" height="6" viewBox="0 0 10 6">
        <path fill-rule="evenodd" clip-rule="evenodd" d="M0.708964 1.70743C0.0785619 1.07759 0.52463 9.44576e-07 1.41575 8.64222e-07L8.58732 2.17554e-07C9.47801 1.37239e-07 9.92428 1.07669 9.29475 1.70679L5.71219 5.29257C5.32185 5.68328 4.68868 5.68356 4.29798 5.29321L0.708964 1.70743Z" fill="#171717"/>
    </g>
    <g id="empty-list" width="132" height="122" viewBox="0 0 132 122">
        <path d="M93.56 89.9492L29.8041 106.35C27.6415 106.904 25.3472 106.578 23.4247 105.444C21.5023 104.31 20.1085 102.461 19.5493 100.302L0.267905 25.5026C-0.286404 23.3422 0.0397753 21.0503 1.17489 19.1298C2.31 17.2093 4.16134 15.817 6.32276 15.2584L65.6372 0L80.8189 6.78935L99.6148 79.705C100.169 81.8655 99.843 84.1573 98.7079 86.0779C97.5727 87.9983 95.7214 89.3906 93.56 89.9492Z" fill="#F2F2F2"/>
        <path d="M6.92655 17.6038C5.38736 18.0016 4.06898 18.9931 3.26064 20.3607C2.4523 21.7283 2.22002 23.3604 2.61476 24.8989L21.8962 99.6979C22.2944 101.236 23.2869 102.553 24.6559 103.36C26.025 104.168 27.6588 104.4 29.1988 104.005L92.9547 87.6043C94.4939 87.2065 95.8123 86.215 96.6206 84.8474C97.4289 83.4798 97.6612 81.8477 97.2665 80.3092L78.7617 8.52329L65.4198 2.55664L6.92655 17.6038Z" fill="white"/>
        <path d="M80.6559 7.17539L70.7888 9.71366C70.0685 9.89896 69.304 9.79082 68.6635 9.41303C68.0229 9.03523 67.5589 8.41873 67.3734 7.69915L65.4968 0.418967C65.4885 0.387094 65.4895 0.353553 65.4995 0.322191C65.5095 0.290829 65.5281 0.262916 65.5532 0.241651C65.5784 0.220387 65.609 0.206632 65.6416 0.201965C65.6743 0.197298 65.7075 0.201907 65.7376 0.215264L80.6833 6.84578C80.7166 6.86054 80.7444 6.88527 80.763 6.91655C80.7815 6.94782 80.7899 6.98409 80.7868 7.02032C80.7838 7.05655 80.7696 7.09095 80.7461 7.11873C80.7227 7.14652 80.6911 7.16632 80.6559 7.17539Z" fill="#F2F2F2"/>
        <path d="M75.4657 71.0519L46.4385 78.519C46.2602 78.5649 46.0746 78.5752 45.8922 78.5494C45.7099 78.5236 45.5344 78.4622 45.3758 78.3687C45.2173 78.2751 45.0787 78.1513 44.968 78.0043C44.8573 77.8573 44.7767 77.6899 44.7308 77.5117C44.6849 77.3336 44.6746 77.1482 44.7004 76.966C44.7262 76.7839 44.7877 76.6086 44.8813 76.4502C44.9749 76.2918 45.0989 76.1533 45.2461 76.0428C45.3932 75.9322 45.5608 75.8517 45.7391 75.8058L74.7663 68.3387C74.9446 68.2928 75.1302 68.2825 75.3126 68.3083C75.4949 68.3341 75.6704 68.3955 75.8289 68.489C75.9875 68.5825 76.1261 68.7064 76.2368 68.8534C76.3474 69.0004 76.428 69.1678 76.4739 69.3459C76.5199 69.5241 76.5302 69.7095 76.5044 69.8917C76.4786 70.0738 76.4171 70.2491 76.3235 70.4075C76.2299 70.5659 76.1059 70.7044 75.9587 70.8149C75.8115 70.9255 75.644 71.006 75.4657 71.0519Z" fill="#CCCCCC"/>
        <path d="M82.2471 74.1893L47.6182 83.0974C47.258 83.1901 46.8758 83.136 46.5555 82.9471C46.2353 82.7582 46.0033 82.45 45.9105 82.0902C45.8178 81.7304 45.8719 81.3485 46.061 81.0286C46.2501 80.7087 46.5587 80.4769 46.9188 80.3842L81.5477 71.4761C81.9077 71.3838 82.2897 71.4381 82.6097 71.627C82.9297 71.816 83.1615 72.1241 83.2542 72.4836C83.3469 72.8432 83.2928 73.2249 83.104 73.5447C82.9152 73.8645 82.6069 74.0964 82.2471 74.1893Z" fill="#CCCCCC"/>
        <path d="M34.5911 87.5124C37.3284 87.5124 39.5475 85.2956 39.5475 82.5611C39.5475 79.8266 37.3284 77.6099 34.5911 77.6099C31.8538 77.6099 29.6348 79.8266 29.6348 82.5611C29.6348 85.2956 31.8538 87.5124 34.5911 87.5124Z" fill="#E6E6E6"/>
        <path d="M72.3792 58.0942L33.8283 68.0076C32.7142 68.2928 31.5323 68.1249 30.542 67.5406C29.5517 66.9564 28.8338 66.0036 28.5458 64.8912L20.467 33.5391C20.1815 32.4261 20.3496 31.2455 20.9345 30.2562C21.5193 29.2669 22.4731 28.5497 23.5866 28.2621L62.1376 18.3487C63.2517 18.0635 64.4336 18.2315 65.4239 18.8157C66.4142 19.3999 67.1321 20.3528 67.42 21.4651L75.4989 52.8172C75.7843 53.9302 75.6162 55.1108 75.0314 56.1001C74.4465 57.0894 73.4927 57.8066 72.3792 58.0942Z" fill="white"/>
        <path d="M72.3792 58.0942L33.8283 68.0076C32.7142 68.2928 31.5323 68.1249 30.542 67.5406C29.5517 66.9564 28.8338 66.0036 28.5458 64.8912L20.467 33.5391C20.1815 32.4261 20.3496 31.2455 20.9345 30.2562C21.5193 29.2669 22.4731 28.5497 23.5866 28.2621L62.1376 18.3487C63.2517 18.0635 64.4336 18.2315 65.4239 18.8157C66.4142 19.3999 67.1321 20.3528 67.42 21.4651L75.4989 52.8172C75.7843 53.9302 75.6162 55.1108 75.0314 56.1001C74.4465 57.0894 73.4927 57.8066 72.3792 58.0942ZM23.7138 28.7558C22.7314 29.0096 21.8898 29.6424 21.3737 30.5153C20.8577 31.3882 20.7093 32.43 20.9612 33.412L29.0401 64.7641C29.2942 65.7456 29.9276 66.5863 30.8014 67.1018C31.6752 67.6173 32.718 67.7655 33.7011 67.5139L72.252 57.6005C73.2345 57.3467 74.0761 56.7139 74.5921 55.841C75.1082 54.9681 75.2565 53.9263 75.0047 52.9443L66.9258 21.5922C66.6717 20.6107 66.0383 19.77 65.1645 19.2545C64.2906 18.739 63.2478 18.5908 62.2648 18.8424L23.7138 28.7558Z" fill="#E6E6E6"/>
        <path d="M60.1811 28.8903L40.725 33.8934C40.5549 33.9409 40.3731 33.922 40.2164 33.8407C40.0597 33.7594 39.9397 33.6217 39.8807 33.4554C39.8533 33.3685 39.8438 33.2769 39.853 33.1863C39.8621 33.0957 39.8897 33.0079 39.9339 32.9282C39.9782 32.8485 40.0382 32.7787 40.1103 32.723C40.1825 32.6673 40.2652 32.6269 40.3535 32.6041L60.1587 27.5112C60.9587 27.9162 60.7482 28.7445 60.1809 28.8903L60.1811 28.8903Z" fill="#F2F2F2"/>
        <path d="M61.06 32.2995L41.6039 37.3026C41.4338 37.3501 41.252 37.3312 41.0953 37.2499C40.9386 37.1686 40.8186 37.0309 40.7596 36.8646C40.7322 36.7777 40.7228 36.6861 40.7319 36.5955C40.741 36.5049 40.7686 36.417 40.8128 36.3374C40.8571 36.2577 40.9171 36.1879 40.9892 36.1322C41.0614 36.0765 41.1441 36.036 41.2324 36.0133L61.0376 30.9204C61.8376 31.3254 61.6271 32.1536 61.0598 32.2995L61.06 32.2995Z" fill="#F2F2F2"/>
        <path d="M37.8976 40.3258L31.9598 41.8527C31.7659 41.9024 31.5601 41.8731 31.3877 41.7714C31.2154 41.6697 31.0904 41.5039 31.0403 41.3103L29.2366 34.3103C29.1869 34.1166 29.2161 33.9111 29.3179 33.7389C29.4197 33.5667 29.5857 33.4419 29.7796 33.3918L35.7174 31.8649C35.9113 31.8153 36.117 31.8446 36.2894 31.9463C36.4617 32.0479 36.5867 32.2138 36.6369 32.4074L38.4406 39.4073C38.4903 39.601 38.4611 39.8065 38.3593 39.9787C38.2575 40.1509 38.0914 40.2757 37.8976 40.3258V40.3258Z" fill="#E6E6E6"/>
        <path d="M62.8014 39.2947L33.1078 46.9304C32.9377 46.9778 32.7559 46.959 32.5992 46.8777C32.4425 46.7963 32.3225 46.6586 32.2635 46.4923C32.2361 46.4054 32.2267 46.3139 32.2358 46.2233C32.2449 46.1326 32.2725 46.0448 32.3167 45.9651C32.361 45.8855 32.421 45.8157 32.4931 45.76C32.5653 45.7042 32.648 45.6638 32.7363 45.6411L62.7792 37.9155C63.5793 38.3205 63.3688 39.1488 62.8015 39.2946L62.8014 39.2947Z" fill="#F2F2F2"/>
        <path d="M63.6804 42.7048L33.9867 50.3405C33.8166 50.388 33.6348 50.3691 33.4781 50.2878C33.3214 50.2065 33.2014 50.0688 33.1424 49.9025C33.115 49.8156 33.1056 49.724 33.1147 49.6334C33.1239 49.5428 33.1514 49.455 33.1956 49.3753C33.2399 49.2956 33.2999 49.2258 33.372 49.1701C33.4442 49.1144 33.5269 49.0739 33.6153 49.0512L63.6582 41.3257C64.4582 41.7306 64.2477 42.5589 63.6804 42.7048V42.7048Z" fill="#F2F2F2"/>
        <path d="M64.5583 46.113L34.8646 53.7488C34.6945 53.7962 34.5127 53.7773 34.356 53.696C34.1993 53.6147 34.0793 53.477 34.0204 53.3107C33.9929 53.2238 33.9835 53.1323 33.9926 53.0416C34.0018 52.951 34.0293 52.8632 34.0736 52.7835C34.1178 52.7038 34.1778 52.634 34.25 52.5783C34.3221 52.5226 34.4049 52.4822 34.4932 52.4594L64.5361 44.7339C65.3361 45.1388 65.1256 45.9671 64.5583 46.113Z" fill="#F2F2F2"/>
        <path d="M65.4372 49.5227L35.7435 57.1584C35.5734 57.2058 35.3917 57.187 35.2349 57.1057C35.0782 57.0244 34.9582 56.8866 34.8993 56.7203C34.8718 56.6335 34.8624 56.5419 34.8715 56.4513C34.8807 56.3606 34.9082 56.2728 34.9525 56.1932C34.9967 56.1135 35.0567 56.0437 35.1289 55.988C35.201 55.9323 35.2838 55.8918 35.3721 55.8691L65.415 48.1436C66.215 48.5485 66.0045 49.3768 65.4372 49.5227L65.4372 49.5227Z" fill="#F2F2F2"/>
        <path d="M66.3161 52.9309L36.6224 60.5666C36.4523 60.6141 36.2706 60.5952 36.1138 60.5139C35.9571 60.4326 35.8371 60.2948 35.7782 60.1285C35.7507 60.0417 35.7413 59.9501 35.7505 59.8595C35.7596 59.7689 35.7871 59.681 35.8314 59.6014C35.8756 59.5217 35.9356 59.4519 36.0078 59.3962C36.0799 59.3405 36.1627 59.3 36.251 59.2773L66.2939 51.5518C67.0939 51.9567 66.8834 52.785 66.3161 52.9309Z" fill="#F2F2F2"/>
        <path d="M34.9566 84.2971C34.8486 84.325 34.7345 84.3172 34.6314 84.2747L34.625 84.272L33.2748 83.7002C33.2122 83.6737 33.1554 83.6351 33.1076 83.5867C33.0599 83.5382 33.0222 83.4808 32.9967 83.4178C32.9712 83.3548 32.9584 83.2874 32.959 83.2194C32.9596 83.1514 32.9736 83.0842 33.0003 83.0217C33.0269 82.9591 33.0656 82.9024 33.1142 82.8548C33.1628 82.8072 33.2203 82.7697 33.2834 82.7443C33.3465 82.7189 33.414 82.7062 33.4821 82.707C33.5501 82.7077 33.6173 82.7218 33.6799 82.7485L34.5548 83.1202L35.7013 80.426C35.7279 80.3635 35.7666 80.3069 35.8151 80.2593C35.8636 80.2118 35.9209 80.1742 35.984 80.1488C36.047 80.1235 36.1144 80.1107 36.1823 80.1114C36.2503 80.112 36.3174 80.126 36.38 80.1525L36.3801 80.1526L36.3732 80.1702L36.3804 80.1525C36.5066 80.2063 36.6063 80.3079 36.6576 80.4351C36.7089 80.5622 36.7076 80.7044 36.654 80.8306L35.3052 83.9985C35.2739 84.0716 35.2262 84.1364 35.1658 84.1881C35.1054 84.2397 35.0339 84.2768 34.9568 84.2964L34.9566 84.2971Z" fill="white"/>
        <path d="M118.013 118.453H52.1777C49.9451 118.451 47.8047 117.564 46.226 115.987C44.6474 114.41 43.7594 112.271 43.7568 110.041V32.8018C43.7594 30.5716 44.6474 28.4334 46.226 26.8563C47.8047 25.2793 49.9451 24.3922 52.1777 24.3896H113.427L126.434 34.7466V110.041C126.432 112.271 125.544 114.41 123.965 115.987C122.386 117.564 120.246 118.451 118.013 118.453Z" fill="#E6E6E6"/>
        <path d="M52.1773 26.8115C50.5875 26.8133 49.0632 27.445 47.939 28.5681C46.8148 29.6911 46.1825 31.2138 46.1807 32.802V110.041C46.1825 111.629 46.8148 113.152 47.939 114.275C49.0632 115.398 50.5875 116.03 52.1773 116.032H118.013C119.603 116.03 121.127 115.398 122.251 114.275C123.376 113.152 124.008 111.629 124.01 110.041V35.9134L112.579 26.8115H52.1773Z" fill="white"/>
        <path d="M105.208 49.2705H75.2343C74.8624 49.2705 74.5057 49.1229 74.2428 48.8602C73.9798 48.5974 73.832 48.2411 73.832 47.8696C73.832 47.4981 73.9798 47.1418 74.2428 46.879C74.5057 46.6163 74.8624 46.4688 75.2343 46.4688H105.208C105.58 46.4687 105.937 46.6163 106.2 46.879C106.463 47.1418 106.611 47.4981 106.611 47.8696C106.611 48.2411 106.463 48.5974 106.2 48.8602C105.937 49.1229 105.58 49.2705 105.208 49.2705Z" fill="#008060"/>
        <path d="M110.993 53.9985H75.2344C74.8628 53.998 74.5066 53.8502 74.244 53.5875C73.9815 53.3249 73.834 52.9688 73.834 52.5976C73.834 52.2264 73.9815 51.8704 74.244 51.6077C74.5066 51.3451 74.8628 51.1973 75.2344 51.1968H110.993C111.177 51.1965 111.36 51.2326 111.53 51.3029C111.701 51.3732 111.855 51.4763 111.986 51.6064C112.116 51.7365 112.22 51.891 112.29 52.0611C112.361 52.2312 112.397 52.4135 112.397 52.5976C112.397 52.7817 112.361 52.9641 112.29 53.1341C112.22 53.3042 112.116 53.4587 111.986 53.5888C111.855 53.719 111.701 53.8221 111.53 53.8924C111.36 53.9627 111.177 53.9987 110.993 53.9985Z" fill="#008060"/>
        <path d="M105.208 67.6558H75.2352C74.8633 67.6558 74.5067 67.8033 74.2437 68.066C73.9807 68.3287 73.833 68.685 73.833 69.0565C73.833 69.428 73.9807 69.7843 74.2437 70.047C74.5067 70.3097 74.8633 70.4573 75.2352 70.4573H105.208C105.58 70.4573 105.937 70.3097 106.2 70.047C106.463 69.7843 106.611 69.428 106.611 69.0565C106.611 68.685 106.463 68.3287 106.2 68.066C105.937 67.8033 105.58 67.6558 105.208 67.6558Z" fill="#CCCCCC"/>
        <path d="M110.993 72.3843H75.2352C74.8633 72.3843 74.5067 72.5319 74.2437 72.7946C73.9807 73.0572 73.833 73.4135 73.833 73.785C73.833 74.1565 73.9807 74.5128 74.2437 74.7755C74.5067 75.0382 74.8633 75.1858 75.2352 75.1858H110.993C111.365 75.1858 111.722 75.0382 111.985 74.7755C112.248 74.5128 112.395 74.1565 112.395 73.785C112.395 73.4135 112.248 73.0572 111.985 72.7946C111.722 72.5319 111.365 72.3843 110.993 72.3843Z" fill="#CCCCCC"/>
        <path d="M105.208 91.6464H75.2343C74.8624 91.6464 74.5057 91.4988 74.2428 91.2361C73.9798 90.9734 73.832 90.6171 73.832 90.2456C73.832 89.8741 73.9798 89.5177 74.2428 89.255C74.5057 88.9923 74.8624 88.8447 75.2343 88.8447H105.208C105.58 88.8447 105.937 88.9923 106.2 89.255C106.463 89.5177 106.611 89.8741 106.611 90.2456C106.611 90.6171 106.463 90.9734 106.2 91.2361C105.937 91.4988 105.58 91.6464 105.208 91.6464Z" fill="#CCCCCC"/>
        <path d="M110.993 96.374H75.2344C74.8628 96.3735 74.5066 96.2257 74.244 95.963C73.9815 95.7004 73.834 95.3443 73.834 94.9731C73.834 94.6019 73.9815 94.2459 74.244 93.9832C74.5066 93.7206 74.8628 93.5728 75.2344 93.5723H110.993C111.177 93.572 111.36 93.6081 111.53 93.6784C111.701 93.7487 111.855 93.8518 111.986 93.9819C112.116 94.112 112.22 94.2665 112.29 94.4366C112.361 94.6067 112.397 94.789 112.397 94.9731C112.397 95.1573 112.361 95.3396 112.29 95.5097C112.22 95.6797 112.116 95.8343 111.986 95.9644C111.855 96.0945 111.701 96.1976 111.53 96.2679C111.36 96.3382 111.177 96.3742 110.993 96.374Z" fill="#CCCCCC"/>
        <path d="M62.7523 55.1847C65.4896 55.1847 67.7086 52.968 67.7086 50.2335C67.7086 47.499 65.4896 45.2822 62.7523 45.2822C60.0149 45.2822 57.7959 47.499 57.7959 50.2335C57.7959 52.968 60.0149 55.1847 62.7523 55.1847Z" fill="#008060"/>
        <path d="M62.2613 52.1226C62.1498 52.1228 62.0413 52.0867 61.9521 52.0199L61.9465 52.0158L60.7817 51.1257C60.7276 51.0844 60.6822 51.0329 60.648 50.9741C60.6139 50.9152 60.5916 50.8503 60.5827 50.7829C60.5737 50.7155 60.5781 50.6469 60.5956 50.5812C60.6132 50.5155 60.6435 50.4539 60.685 50.4C60.7264 50.346 60.778 50.3007 60.837 50.2667C60.8959 50.2328 60.961 50.2107 61.0285 50.2019C61.096 50.193 61.1646 50.1976 61.2303 50.2153C61.2961 50.2329 61.3576 50.2634 61.4116 50.3049L62.1661 50.8829L63.9489 48.5593C63.9902 48.5055 64.0418 48.4603 64.1006 48.4263C64.1595 48.3923 64.2244 48.3703 64.2918 48.3614C64.3591 48.3525 64.4276 48.3569 64.4932 48.3745C64.5589 48.392 64.6204 48.4223 64.6743 48.4636L64.6745 48.4637L64.6634 48.4791L64.6748 48.4637C64.7836 48.5472 64.8548 48.6705 64.8727 48.8064C64.8906 48.9423 64.8539 49.0797 64.7705 49.1886L62.6735 51.9203C62.625 51.9833 62.5626 52.0342 62.4912 52.0692C62.4198 52.1041 62.3413 52.1222 62.2618 52.122L62.2613 52.1226Z" fill="white"/>
        <path d="M68.2178 71.4211C68.218 72.0714 68.09 72.7154 67.8411 73.3163C67.5922 73.9171 67.2272 74.4631 66.767 74.9231C66.3069 75.383 65.7605 75.7479 65.1591 75.9969C64.5578 76.2459 63.9132 76.3741 63.2623 76.3741C63.2197 76.375 63.1771 76.3733 63.1347 76.369C62.1601 76.3441 61.2146 76.0325 60.4164 75.4734C59.6182 74.9143 59.0028 74.1325 58.6472 73.2257C58.2916 72.319 58.2115 71.3276 58.4171 70.3756C58.6227 69.4237 59.1048 68.5534 59.803 67.8738C60.5012 67.1941 61.3845 66.7353 62.3425 66.5547C63.3005 66.374 64.2905 66.4796 65.1886 66.8583C66.0868 67.2369 66.8532 67.8717 67.392 68.6834C67.9308 69.495 68.2181 70.4473 68.2178 71.4211Z" fill="#CCCCCC"/>
        <path d="M62.7523 97.5607C65.4896 97.5607 67.7086 95.3439 67.7086 92.6094C67.7086 89.875 65.4896 87.6582 62.7523 87.6582C60.0149 87.6582 57.7959 89.875 57.7959 92.6094C57.7959 95.3439 60.0149 97.5607 62.7523 97.5607Z" fill="#CCCCCC"/>
        <path d="M126.181 35.08H115.992C115.248 35.08 114.535 34.7848 114.009 34.2594C113.483 33.7339 113.188 33.0213 113.188 32.2782V24.7606C113.187 24.7276 113.197 24.6954 113.214 24.6675C113.232 24.6396 113.257 24.6172 113.286 24.6029C113.316 24.5886 113.349 24.5829 113.382 24.5865C113.415 24.5901 113.446 24.6029 113.472 24.6233L126.29 34.7676C126.318 34.7902 126.339 34.8211 126.349 34.856C126.36 34.8909 126.359 34.9281 126.347 34.9624C126.335 34.9968 126.312 35.0265 126.283 35.0476C126.253 35.0686 126.217 35.08 126.181 35.08Z" fill="#CCCCCC"/>
        <path d="M68.218 71.4207C68.2183 72.071 68.0903 72.7149 67.8414 73.3158C67.5924 73.9167 67.2275 74.4627 66.7673 74.9226C66.3071 75.3826 65.7607 75.7474 65.1594 75.9964C64.558 76.2454 63.9135 76.3736 63.2625 76.3737C63.2199 76.3745 63.1773 76.3728 63.1349 76.3686C62.4946 74.7731 62.2478 73.0473 62.4152 71.3365C62.5826 69.6258 63.1594 67.9804 64.0969 66.5391C65.2499 66.7365 66.2958 67.3347 67.0499 68.228C67.8041 69.1213 68.2178 70.2521 68.218 71.4207Z" fill="#008060"/>
        <path d="M73.832 69.0578C73.8327 68.6862 73.9808 68.3299 74.2438 68.0671C74.5069 67.8044 74.8635 67.6564 75.2355 67.6558H82.7046C83.1408 68.5422 83.4508 69.4851 83.6257 70.4573H75.2355C74.8638 70.4572 74.5072 70.3098 74.2441 70.0474C73.981 69.7851 73.8328 69.4292 73.832 69.0578Z" fill="#008060"/>
        <path d="M83.799 72.3843C83.7995 73.3305 83.6742 74.2726 83.4264 75.1858H75.2352C74.8633 75.1858 74.5067 75.0382 74.2437 74.7755C73.9807 74.5128 73.833 74.1565 73.833 73.785C73.833 73.4135 73.9807 73.0572 74.2437 72.7946C74.5067 72.5319 74.8633 72.3843 75.2352 72.3843H83.799Z" fill="#008060"/>
        <path d="M102.279 89.6621C102.068 90.0084 101.727 90.2566 101.332 90.3521C100.938 90.4476 100.521 90.3826 100.175 90.1713L82.3109 79.2864C82.1393 79.1818 81.9899 79.0445 81.8714 78.8822C81.7529 78.72 81.6675 78.536 81.6202 78.3408C81.5729 78.1456 81.5645 77.943 81.5955 77.7445C81.6265 77.5461 81.6964 77.3557 81.8011 77.1842C81.9058 77.0127 82.0433 76.8635 82.2057 76.7451C82.3681 76.6267 82.5523 76.5415 82.7477 76.4942C82.9431 76.4469 83.146 76.4385 83.3446 76.4695C83.5433 76.5005 83.7338 76.5703 83.9055 76.6749L101.769 87.5598C102.116 87.7711 102.364 88.1112 102.46 88.5055C102.555 88.8997 102.49 89.3157 102.279 89.6621Z" fill="#3F3D56"/>
        <path d="M84.4162 78.777C83.1548 80.8431 81.3083 82.489 79.1104 83.5067C76.9125 84.5244 74.4619 84.8682 72.0684 84.4946C69.6749 84.1209 67.4461 83.0466 65.6638 81.4076C63.8815 79.7686 62.6257 77.6383 62.0553 75.2863C61.4849 72.9344 61.6255 70.4662 62.4593 68.194C63.293 65.9218 64.7826 63.9477 66.7395 62.5212C68.6964 61.0947 71.0328 60.2799 73.4533 60.1799C75.8738 60.0799 78.2695 60.6991 80.3377 61.9593C83.1081 63.6517 85.0934 66.3729 85.8581 69.5257C86.6227 72.6785 86.1041 76.0056 84.4162 78.777ZM66.1169 67.6266C65.1707 69.1761 64.7058 70.9711 64.7809 72.7846C64.856 74.5981 65.4677 76.3486 66.5387 77.8148C67.6097 79.2809 69.0918 80.3969 70.7977 81.0216C72.5036 81.6463 74.3566 81.7516 76.1224 81.3243C77.8882 80.8969 79.4876 79.9561 80.7181 78.6207C81.9487 77.2854 82.7552 75.6155 83.0357 73.8222C83.3162 72.0289 83.0581 70.1929 82.2941 68.5461C81.53 66.8994 80.2943 65.516 78.7431 64.5708C76.6624 63.3062 74.1646 62.9177 71.7975 63.4906C69.4304 64.0635 67.3875 65.5509 66.1169 67.6266Z" fill="#3F3D56"/>
    </g>
</svg>